<svg width="17" height="20" viewBox="0 0 17 20" fill="none" xmlns="http://www.w3.org/2000/svg">
<path d="M9.8606 8.37109V14.2906C9.8606 14.679 10.2249 14.9938 10.6744 14.9938C11.1239 14.9938 11.4882 14.679 11.4882 14.2906V8.37109C11.4882 7.98276 11.1239 7.66797 10.6744 7.66797C10.2249 7.66797 9.8606 7.98276 9.8606 8.37109Z" fill="#393939" stroke="white" stroke-width="0.2"/>
<path d="M6.30359 8.37109V14.2906C6.30359 14.679 6.66794 14.9938 7.11741 14.9938C7.56688 14.9938 7.93123 14.679 7.93123 14.2906V8.37109C7.93123 7.98276 7.56688 7.66797 7.11741 7.66797C6.66794 7.66797 6.30359 7.98276 6.30359 8.37109Z" fill="#393939" stroke="white" stroke-width="0.2"/>
<path d="M16.8984 4.36171C16.8984 3.97338 16.5341 3.65859 16.0846 3.65859H12.7263V3.15304C12.7263 1.96588 11.6084 1 10.2343 1H7.56263C6.18854 1 5.07064 1.96588 5.07064 3.15304V3.65859H1.71226C1.26278 3.65859 0.898438 3.97338 0.898438 4.36171C0.898438 4.70371 1.18116 4.98841 1.5556 5.05151V16.1875C1.5556 17.7383 3.01591 19 4.81087 19H12.986C14.7752 19 16.2354 17.7424 16.2411 16.1964C16.2425 15.8081 15.8792 15.4924 15.4298 15.4911H15.4272C14.979 15.4911 14.6149 15.8045 14.6134 16.1921C14.6106 16.9649 13.8806 17.5938 12.986 17.5938H4.81087C3.91339 17.5938 3.18323 16.9629 3.18323 16.1875V5.06484H14.6136V13.8371C14.6136 14.2254 14.9779 14.5 15.4274 14.5C15.8769 14.5 16.2412 14.2254 16.2412 13.8371V5.05151C16.6157 4.98841 16.8984 4.70371 16.8984 4.36171ZM6.69824 3.65859V3.15304C6.69824 2.74125 7.08598 2.40625 7.56259 2.40625H10.2342C10.7109 2.40625 11.0986 2.74125 11.0986 3.15304V3.65859H6.69824Z" fill="#393939" stroke="white" stroke-width="0.2"/>
</svg>
